<?xml version="1.0" encoding="utf-8"?>
<!-- Generator: Adobe Illustrator 24.1.3, SVG Export Plug-In . SVG Version: 6.00 Build 0)  -->
<svg version="1.1" id="Layer_1" xmlns="http://www.w3.org/2000/svg" xmlns:xlink="http://www.w3.org/1999/xlink" x="0px" y="0px"
	 viewBox="0 0 512 512" enable-background="new 0 0 512 512" xml:space="preserve">
<path fill="#990000" stroke="#990000" stroke-miterlimit="10" d="M479.3,217c0.4-1.2,0.7-2.4,0.7-3.7h-4.4L479.3,217z"/>
<path fill="#990000" stroke="#990000" stroke-miterlimit="10" d="M480,187.6v-48.9c0-5.9-4.8-10.7-10.7-10.7H448V96
	c0-5.9-4.8-10.7-10.7-10.7H416v-32c0-5.9-4.8-10.7-10.7-10.7h-96c-2.8,0-5.5,1.1-7.5,3.1l-28.9,28.9H106.7
	c-5.9,0-10.7,4.8-10.7,10.7v32H74.7c-5.9,0-10.7,4.8-10.7,10.7v32H42.7c-5.9,0-10.7,4.8-10.7,10.7v19.5L0,219.3v250.1h512V219.6
	L480,187.6z M117.3,96h160c2.8,0,5.5-1.1,7.5-3.1L313.8,64h80.9v21.3h-53.3c-2.8,0-5.5,1.1-7.5,3.1l-28.9,28.9H117.3V96z
	 M85.3,138.7h224c2.8,0,5.5-1.1,7.5-3.1l28.9-28.9h80.9V128h-53.3c-2.8,0-5.5,1.1-7.5,3.1L336.9,160H85.3V138.7z M53.3,202.7v-21.3
	h288c2.8,0,5.5-1.1,7.5-3.1l28.9-28.9h80.9v53.3H53.3z M490.7,448H21.3V234.7h469.3L490.7,448L490.7,448z"/>
<path fill="none" stroke="#990000" stroke-width="17.0667" stroke-miterlimit="10" d="M256,307.2c-29.6-17.1-59.1-34.1-59.1-34.1
	v136.5l118.2-68.3C315.1,341.3,285.6,324.3,256,307.2z"/>
</svg>
