<?xml version="1.0" encoding="utf-8"?>
<!-- Generator: Adobe Illustrator 24.2.0, SVG Export Plug-In . SVG Version: 6.00 Build 0)  -->
<svg version="1.1" id="Layer_1" xmlns="http://www.w3.org/2000/svg" xmlns:xlink="http://www.w3.org/1999/xlink" x="0px" y="0px"
	 viewBox="0 0 512 512" enable-background="new 0 0 512 512" xml:space="preserve">
<path id="Play" fill="none" stroke="#991B1E" stroke-width="17.0667" stroke-miterlimit="10" d="M256,307.2
	c-29.6-17.1-59.1-34.1-59.1-34.1v136.5l118.2-68.3C315.1,341.3,285.6,324.3,256,307.2z"/>
<path id="Folder_1_" fill="#991B1E" stroke="#991B1E" stroke-miterlimit="10" d="M421.7,128c-2.8,0-324.1,1.8-324.1,1.8L0,219.3
	v250.1h512V219.6L421.7,128z M34.7,213.1l75.1-68.9l299.5-1.8l69.7,70.8L34.7,213.1z M490.7,448H21.3V234.7h469.3L490.7,448
	L490.7,448z"/>
<g>
	<path d="M240.6,155.5c0.2-9.7,1.3-17.3,3.3-22.9c2-5.6,6.2-11.8,12.5-18.6l16-16.5c6.8-7.7,10.3-16,10.3-24.8
		c0-8.5-2.2-15.2-6.7-20c-4.5-4.8-11-7.2-19.5-7.2c-8.3,0-15,2.2-20,6.6c-5,4.4-7.6,10.3-7.6,17.7h-22.6
		c0.2-13.2,4.9-23.8,14.1-31.9c9.2-8.1,21.3-12.1,36.1-12.1c15.4,0,27.4,4.1,35.9,12.4s12.9,19.6,12.9,33.9c0,14.2-6.6,28.2-19.8,42
		l-13.3,13.2c-5.9,6.6-8.9,16-8.9,28.4H240.6z M239.6,194.3c0-3.7,1.1-6.8,3.4-9.3c2.2-2.5,5.6-3.8,9.9-3.8s7.7,1.3,10,3.8
		c2.3,2.5,3.4,5.6,3.4,9.3s-1.1,6.8-3.4,9.2c-2.3,2.4-5.6,3.6-10,3.6s-7.7-1.2-9.9-3.6C240.7,201,239.6,198,239.6,194.3z"/>
</g>
<g>
</g>
<g>
</g>
<g>
</g>
<g>
</g>
<g>
</g>
<g>
</g>
</svg>
